<svg xmlns="http://www.w3.org/2000/svg" width="78.409" height="87.121" viewBox="0 0 78.409 87.121">
  <path id="ic_perm_contact_calendar_24px" d="M72.7,9.712H68.341V1H59.628V9.712H24.78V1H16.068V9.712H11.712A8.71,8.71,0,0,0,3,18.424V79.409a8.71,8.71,0,0,0,8.712,8.712H72.7a8.738,8.738,0,0,0,8.712-8.712V18.424A8.738,8.738,0,0,0,72.7,9.712ZM42.2,22.78A13.068,13.068,0,1,1,29.136,35.848,13.051,13.051,0,0,1,42.2,22.78ZM68.341,75.053H16.068V70.7c0-8.712,17.424-13.5,26.136-13.5s26.136,4.792,26.136,13.5Z" transform="translate(-3 -1)" fill="#64a0cb"/>
</svg>
