<svg xmlns="http://www.w3.org/2000/svg" width="79.286" height="59.465" viewBox="0 0 79.286 59.465">
  <path id="ic_contact_phone_24px" d="M72.679,3H6.607A6.627,6.627,0,0,0,0,9.607v46.25a6.627,6.627,0,0,0,6.607,6.607H72.679a6.6,6.6,0,0,0,6.574-6.607l.033-46.25A6.627,6.627,0,0,0,72.679,3Zm-46.25,9.911a9.911,9.911,0,1,1-9.911,9.911A9.9,9.9,0,0,1,26.429,12.911ZM46.25,52.554H6.607v-3.3c0-6.607,13.214-10.241,19.822-10.241S46.25,42.643,46.25,49.25ZM58.969,39.34h5.418l4.988,6.607L62.8,52.521A24.815,24.815,0,0,1,53.783,39.34a24.06,24.06,0,0,1,0-13.214A24.691,24.691,0,0,1,62.8,12.944l6.574,6.574-4.988,6.607H58.969a19.456,19.456,0,0,0,0,13.214Z" transform="translate(0 -3)" fill="#930048"/>
</svg>
