<svg xmlns="http://www.w3.org/2000/svg" width="77.379" height="77.379" viewBox="0 0 77.379 77.379">
  <path id="ic_settings_phone_24px" d="M45.988,28.793h-8.6v8.6h8.6Zm17.2,0h-8.6v8.6h8.6Zm12.9,27.942a48.836,48.836,0,0,1-15.347-2.45,4.387,4.387,0,0,0-4.385,1.032l-9.457,9.457A64.8,64.8,0,0,1,18.562,36.488l9.457-9.5a4.22,4.22,0,0,0,1.075-4.342A48.836,48.836,0,0,1,26.644,7.3a4.311,4.311,0,0,0-4.3-4.3H7.3A4.311,4.311,0,0,0,3,7.3a73.074,73.074,0,0,0,73.08,73.08,4.311,4.311,0,0,0,4.3-4.3V61.034A4.311,4.311,0,0,0,76.08,56.735Zm-4.3-27.942v8.6h8.6v-8.6Z" transform="translate(-3 -3)" fill="#b3d7fc"/>
</svg>
